<?xml version="1.0" encoding="UTF-8"?>
<svg width="17px" height="18px" viewBox="0 0 17 18" version="1.1" xmlns="http://www.w3.org/2000/svg" xmlns:xlink="http://www.w3.org/1999/xlink">
    <!-- Generator: Sketch 52.5 (67469) - http://www.bohemiancoding.com/sketch -->
    <title>Logout</title>
    <desc>Created with Sketch.</desc>
    <g id="All-Screens" stroke="none" stroke-width="1" fill="none" fill-rule="evenodd">
        <g id="03.2_New-Enrolment---Step-1" transform="translate(-1316.000000, -112.000000)" fill="#FFFFFF" fill-rule="nonzero">
            <g id="Header">
                <g id="Main-Navigation" transform="translate(0.000000, 98.000000)">
                    <g id="Logout" transform="translate(1316.000000, 13.000000)">
                        <path d="M8.14276622,1 C7.5049492,1 6.8424665,1.63866786 6.85739039,2.17857143 L6.85739039,9.25 C6.84728328,9.87265107 7.42786725,10.4285714 8.14276622,10.4285714 C8.85766519,10.4285714 9.43824916,9.87265107 9.42814205,9.25 L9.42814205,2.17857143 C9.44792601,1.46541786 8.78058324,1 8.14276622,1 Z M4.24857247,3.57540127 C4.1469857,3.5992103 4.04859382,3.6382853 3.95727921,3.69108992 C0.462342657,5.63034029 -0.608334857,9.61175765 0.316113439,12.9076812 C1.24056174,16.2024941 4.13776452,19 8.1082082,19 C12.0222575,19 14.9561632,16.3481075 15.9372389,13.1001871 C16.9171495,9.85214325 15.8696589,5.91403972 12.2960732,3.7290975 C11.7903881,3.41615198 11.0621549,3.6181598 10.766201,4.15322754 C10.4707131,4.68829528 10.6613354,5.45992319 11.1670205,5.77286871 C13.9527162,7.47555892 14.5256318,10.0850014 13.8250132,12.4056849 C13.1245112,14.7263685 11.0938476,16.6476023 8.10844123,16.6476023 C5.10707198,16.6476023 3.10099354,14.6112352 2.42822262,12.2128088 C1.75521867,9.81450587 2.37345949,7.21752694 4.97680563,5.77286871 C5.41805666,5.51829197 5.65155734,4.91831518 5.5078915,4.40842129 C5.36434219,3.89840399 4.85865708,3.53190233 4.35786571,3.57484596 C4.32139579,3.57299494 4.28492587,3.57299494 4.24857247,3.57484596 L4.24857247,3.57540127 Z"></path>
                    </g>
                </g>
            </g>
        </g>
    </g>
</svg>